<svg preserveAspectRatio="none" overflow="visible" style="display: block;" width="31.9953" height="31.9953" viewBox="0 0 31.9953 31.9953" fill="none" xmlns="http://www.w3.org/2000/svg">
<g id="Icon">
<path id="Vector" d="M13.2474 20.6636C13.1284 20.2023 12.8879 19.7812 12.551 19.4443C12.2141 19.1074 11.793 18.8669 11.3317 18.7479L3.15287 16.6389C3.01333 16.5993 2.89052 16.5152 2.80307 16.3995C2.71562 16.2838 2.66831 16.1427 2.66831 15.9976C2.66831 15.8526 2.71562 15.7115 2.80307 15.5958C2.89052 15.4801 3.01333 15.396 3.15287 15.3564L11.3317 13.2461C11.7929 13.1271 12.2138 12.8869 12.5507 12.5502C12.8876 12.2135 13.1282 11.7928 13.2474 11.3317L15.3564 3.15287C15.3956 3.01278 15.4796 2.88936 15.5955 2.80145C15.7114 2.71353 15.8528 2.66594 15.9983 2.66594C16.1438 2.66594 16.2853 2.71353 16.4012 2.80145C16.5171 2.88936 16.601 3.01278 16.6402 3.15287L18.7479 11.3317C18.8669 11.793 19.1074 12.2141 19.4443 12.551C19.7812 12.8879 20.2023 13.1284 20.6636 13.2474L28.8424 15.3551C28.9831 15.3939 29.1071 15.4777 29.1955 15.5938C29.2839 15.7099 29.3318 15.8518 29.3318 15.9976C29.3318 16.1435 29.2839 16.2854 29.1955 16.4015C29.1071 16.5176 28.9831 16.6014 28.8424 16.6402L20.6636 18.7479C20.2023 18.8669 19.7812 19.1074 19.4443 19.4443C19.1074 19.7812 18.8669 20.2023 18.7479 20.6636L16.6389 28.8424C16.5997 28.9825 16.5157 29.1059 16.3998 29.1939C16.2839 29.2818 16.1425 29.3294 15.997 29.3294C15.8515 29.3294 15.71 29.2818 15.5941 29.1939C15.4782 29.1059 15.3943 28.9825 15.3551 28.8424L13.2474 20.6636Z" stroke="#8B7B96" stroke-width="2.66628" stroke-linecap="round" stroke-linejoin="round"/>
<path id="Vector_2" d="M26.6628 3.99941V9.33196" stroke="#8B7B96" stroke-width="2.66628" stroke-linecap="round" stroke-linejoin="round"/>
<path id="Vector_3" d="M29.329 6.66569H23.9965" stroke="#8B7B96" stroke-width="2.66628" stroke-linecap="round" stroke-linejoin="round"/>
<path id="Vector_4" d="M5.33255 22.6633V25.3296" stroke="#8B7B96" stroke-width="2.66628" stroke-linecap="round" stroke-linejoin="round"/>
<path id="Vector_5" d="M6.66569 23.9965H3.99941" stroke="#8B7B96" stroke-width="2.66628" stroke-linecap="round" stroke-linejoin="round"/>
</g>
</svg>
